<svg xmlns="http://www.w3.org/2000/svg" width="256" height="256" viewBox="0 0 100 100"><rect width="100" height="100" rx="20" fill="#e15638"></rect><path fill="#fff" d="M5.41 73.17L5.41 73.17Q2.11 73.17 2.11 70.47L2.11 70.47L2.11 28.10Q3.46 26.75 6.16 26.75L6.16 26.75Q7.96 26.75 9.24 27.46Q10.51 28.17 11.56 30.05L11.56 30.05L25.89 54.05Q26.79 55.63 27.76 57.39Q28.74 59.15 29.64 60.91Q30.54 62.67 31.32 64.21Q32.11 65.75 32.64 66.80L32.64 66.80L32.94 66.72Q32.34 60.65 32.23 54.50Q32.11 48.35 32.11 42.50L32.11 42.50L32.11 27.35Q32.56 27.20 33.31 27.01Q34.06 26.82 34.96 26.82L34.96 26.82Q38.26 26.82 38.26 29.52L38.26 29.52L38.26 71.97Q37.59 72.58 36.54 72.91Q35.49 73.25 34.21 73.25L34.21 73.25Q32.41 73.25 31.14 72.54Q29.86 71.83 28.81 69.95L28.81 69.95L14.56 45.95Q13.66 44.45 12.65 42.65Q11.64 40.85 10.70 39.13Q9.76 37.40 8.98 35.82Q8.19 34.25 7.66 33.20L7.66 33.20L7.36 33.27Q7.74 36.88 7.96 41.49Q8.19 46.10 8.19 50.22L8.19 50.22L8.19 72.65Q7.81 72.80 7.03 72.99Q6.24 73.17 5.41 73.17ZM77.56 60.95L77.56 60.95Q77.04 61.32 76.18 61.63Q75.31 61.92 74.26 61.92L74.26 61.92Q73.06 61.92 72.13 61.55Q71.19 61.17 70.81 60.35L70.81 60.35Q66.76 51.95 63.84 44.97Q60.91 38 59.11 33.42L59.11 33.42L58.81 33.42Q58.59 39.05 58.33 43.89Q58.06 48.72 57.76 53.34Q57.46 57.95 57.16 62.67Q56.86 67.40 56.56 72.80L56.56 72.80Q56.11 72.95 55.40 73.10Q54.69 73.25 53.86 73.25L53.86 73.25Q52.21 73.25 51.54 72.58Q50.86 71.90 50.86 70.63L50.86 70.63Q50.86 69.88 50.98 67.40Q51.09 64.92 51.31 61.40Q51.54 57.88 51.80 53.60Q52.06 49.33 52.40 44.90Q52.74 40.48 53.08 36.20Q53.41 31.92 53.71 28.40L53.71 28.40Q54.31 27.88 55.44 27.42Q56.56 26.98 57.99 26.98L57.99 26.98Q61.44 26.98 62.79 29.75L62.79 29.75Q64.21 32.67 65.68 35.94Q67.14 39.20 68.60 42.58Q70.06 45.95 71.45 49.25Q72.84 52.55 74.11 55.55L74.11 55.55L74.41 55.55Q76.06 51.58 77.71 47.71Q79.36 43.85 80.94 40.25Q82.51 36.65 83.94 33.50Q85.36 30.35 86.49 27.73L86.49 27.73Q87.16 27.35 88.21 27.16Q89.26 26.98 90.16 26.98L90.16 26.98Q93.69 26.98 94.21 29.38L94.21 29.38Q94.51 30.73 94.89 33.84Q95.26 36.95 95.64 41Q96.01 45.05 96.35 49.70Q96.69 54.35 96.99 58.66Q97.29 62.97 97.51 66.61Q97.74 70.25 97.89 72.35L97.89 72.35Q96.54 73.25 94.74 73.25L94.74 73.25Q93.61 73.25 92.75 72.69Q91.89 72.13 91.74 70.63L91.74 70.63Q91.36 65.15 91.06 59.75Q90.76 54.35 90.50 49.47Q90.24 44.60 90.01 40.51Q89.79 36.42 89.64 33.57L89.64 33.57L89.34 33.57Q88.51 35.67 87.43 38.30Q86.34 40.92 84.88 44.22Q83.41 47.52 81.61 51.69Q79.81 55.85 77.56 60.95Z"></path></svg>